<?xml version="1.0" encoding="UTF-8"?>
<svg id="Capa_1" data-name="Capa 1" xmlns="http://www.w3.org/2000/svg" viewBox="0 0 250 66.67">
  <defs>
    <style>
      .cls-1 {
        fill: #fff;
      }

      .cls-2 {
        fill: #f05235;
      }
    </style>
  </defs>
  <path class="cls-1" d="M.06,1.63h29.21v7.25H8.04v12.04h12.07c2,0,3.63,1.62,3.63,3.63h0c0,2-1.62,3.63-3.63,3.63h-12.07v16c0,2.22-1.8,4.02-4.02,4.02h0C1.8,48.2,0,46.4,0,44.17L.06,1.63Z"/>
  <path class="cls-1" d="M26.07,29.74h0c4.41,0,7.98,3.91,7.98,8.74v5.53c0,2.32-1.79,4.19-3.99,4.19h0c-2.2,0-3.99-1.88-3.99-4.19v-14.27Z"/>
  <path class="cls-2" d="M30.06,20.7h0c2.2,0,3.99,1.79,3.99,3.99h0c0,2.21-1.79,3.99-3.99,3.99h0c-2.2,0-3.99-1.79-3.99-3.99h0c0-2.21,1.79-3.99,3.99-3.99Z"/>
  <path class="cls-1" d="M35.65,14.94h9.98l6.98,9.31,6.65-9.31h8.98l-11.04,15.43,13.37,17.83h-9.98l-8.58-11.44-8.12,11.44h-8.98l12.51-17.56-11.78-15.7Z"/>
  <path class="cls-1" d="M86.94,14.47c4.92,0,8.72,1.39,11.38,4.16,2.66,2.77,3.99,6.64,3.99,11.61v13.97c0,2.2-1.79,3.99-3.99,3.99h0c-2.2,0-3.99-1.79-3.99-3.99v-15.1c0-2.22-.69-3.99-2.06-5.32-1.37-1.33-3.15-2-5.32-2s-3.95.66-5.32,2c-1.37,1.33-2.06,3.11-2.06,5.32v15.1c0,2.2-1.79,3.99-3.99,3.99h0c-2.2,0-3.99-1.79-3.99-3.99v-13.97c0-4.97,1.33-8.84,3.99-11.61,2.66-2.77,6.45-4.16,11.38-4.16Z"/>
  <path class="cls-1" d="M122.6,48.73c-3.06,0-5.7-.49-7.92-1.46-2.22-.97-4.05-2.27-5.49-3.89-1.44-1.62-2.51-3.46-3.19-5.52-.69-2.06-1.03-4.18-1.03-6.35s.34-4.29,1.03-6.35c.69-2.06,1.75-3.9,3.19-5.52,1.44-1.62,3.27-2.92,5.49-3.89,2.22-.98,4.86-1.46,7.92-1.46s5.7.49,7.92,1.46c2.22.98,4.05,2.27,5.49,3.89,1.44,1.62,2.5,3.46,3.19,5.52.69,2.06,1.03,4.18,1.03,6.35s-.34,4.29-1.03,6.35c-.69,2.06-1.75,3.9-3.19,5.52-1.44,1.62-3.27,2.92-5.49,3.89-2.22.98-4.86,1.46-7.92,1.46ZM122.6,21.59c-2.13,0-3.91.49-5.36,1.46-1.44.98-2.53,2.2-3.26,3.66-.73,1.46-1.09,3.06-1.06,4.79.02,1.73.39,3.33,1.1,4.79.71,1.46,1.78,2.68,3.23,3.66,1.44.98,3.23,1.46,5.36,1.46s3.91-.49,5.36-1.46c1.44-.98,2.52-2.2,3.23-3.66.71-1.46,1.06-3.06,1.06-4.79s-.36-3.33-1.06-4.79c-.71-1.46-1.79-2.68-3.23-3.66-1.44-.97-3.23-1.46-5.36-1.46Z"/>
  <path class="cls-1" d="M146.95,1.63h0c2.2,0,3.99,1.79,3.99,3.99v38.65c0,2.2-1.79,3.99-3.99,3.99h0c-2.2,0-3.99-1.79-3.99-3.99V5.62c0-2.2,1.79-3.99,3.99-3.99Z"/>
  <path class="cls-2" d="M171.28,48.93c-3.06,0-5.7-.49-7.92-1.46-2.22-.97-4.05-2.27-5.49-3.89-1.44-1.62-2.51-3.46-3.19-5.52-.69-2.06-1.03-4.18-1.03-6.35s.34-4.29,1.03-6.35c.69-2.06,1.75-3.9,3.19-5.52,1.44-1.62,3.27-2.92,5.49-3.89,2.22-.98,4.86-1.46,7.92-1.46s5.7.49,7.92,1.46c2.22.98,4.05,2.27,5.49,3.89,1.44,1.62,2.5,3.46,3.19,5.52.69,2.06,1.03,4.18,1.03,6.35s-.34,4.29-1.03,6.35c-.69,2.06-1.75,3.9-3.19,5.52-1.44,1.62-3.27,2.92-5.49,3.89-2.22.98-4.86,1.46-7.92,1.46ZM171.28,21.79c-2.13,0-3.91.49-5.36,1.46-1.44.98-2.53,2.2-3.26,3.66-.73,1.46-1.09,3.06-1.06,4.79.02,1.73.39,3.33,1.1,4.79.71,1.46,1.78,2.68,3.23,3.66,1.44.98,3.23,1.46,5.36,1.46s3.91-.49,5.36-1.46c1.44-.98,2.52-2.2,3.23-3.66.71-1.46,1.06-3.06,1.06-4.79s-.36-3.33-1.06-4.79c-.71-1.46-1.79-2.68-3.23-3.66-1.44-.97-3.23-1.46-5.36-1.46Z"/>
  <path class="cls-2" d="M198.84,48.73c-3.06,0-5.7-.49-7.92-1.46-2.22-.97-4.05-2.27-5.49-3.89-1.44-1.62-2.51-3.46-3.19-5.52-.69-2.06-1.03-4.18-1.03-6.35s.34-4.29,1.03-6.35c.69-2.06,1.75-3.9,3.19-5.52,1.44-1.62,3.27-2.92,5.49-3.89,2.22-.98,4.86-1.46,7.92-1.46s5.7.49,7.92,1.46c2.22.98,4.05,2.27,5.49,3.89,1.44,1.62,2.5,3.46,3.19,5.52.69,2.06,1.03,4.18,1.03,6.35v15.9c0,2.53-.37,4.87-1.1,7.02-.73,2.15-1.84,3.99-3.33,5.52-1.49,1.53-3.33,2.73-5.52,3.59-2.2.86-4.76,1.3-7.68,1.3h-6.92v-7.32h7.85c1.46,0,2.74-.26,3.83-.77,1.09-.51,2-1.2,2.73-2.06.73-.87,1.27-1.85,1.63-2.96.35-1.11.53-2.24.53-3.39v-1.93c-1.29.75-2.72,1.33-4.29,1.73-1.57.4-3.36.6-5.36.6ZM198.84,21.59c-2.17,0-3.98.49-5.42,1.46-1.44.98-2.53,2.2-3.26,3.66-.73,1.46-1.1,3.06-1.1,4.79s.37,3.33,1.1,4.79c.73,1.46,1.82,2.68,3.26,3.66,1.44.98,3.25,1.46,5.42,1.46s3.98-.49,5.42-1.46c1.44-.98,2.53-2.2,3.26-3.66.73-1.46,1.1-3.06,1.1-4.79s-.37-3.33-1.1-4.79c-.73-1.46-1.82-2.68-3.26-3.66-1.44-.97-3.25-1.46-5.42-1.46Z"/>
  <path class="cls-1" d="M233.5,48.67c-4.66,0-8.19-1.33-10.61-3.99-2.42-2.66-3.63-6.3-3.63-10.91V14.94h7.98v19.09c0,2.22.69,3.99,2.06,5.32,1.37,1.33,3.15,2,5.32,2s3.95-.73,5.32-2.2c1.37-1.46,2.06-3.59,2.06-6.39V14.94h7.98v32.46c0,2.53-.37,4.87-1.1,7.02-.73,2.15-1.84,3.99-3.33,5.52-1.49,1.53-3.33,2.73-5.52,3.59-2.2.86-4.76,1.3-7.68,1.3h-3.26c-2.02,0-3.66-1.64-3.66-3.66h0c0-2.02,1.64-3.66,3.66-3.66h4.19c1.46,0,2.74-.26,3.83-.77,1.09-.51,1.98-1.2,2.69-2.06.71-.87,1.24-1.85,1.6-2.96.35-1.11.53-2.24.53-3.39v-2.39c-2.35,1.82-5.17,2.73-8.45,2.73Z"/>
  <path class="cls-2" d="M191.92,57.51H12.7c-1.95,0-3.54,1.64-3.54,3.66h0c0,2.02,1.58,3.66,3.54,3.66h179.22s0-7.32,0-7.32Z"/>
  <rect class="cls-1" x=".04" y="57.42" width="7.32" height="7.32" rx="3.66" ry="3.66"/>
  <path class="cls-1" d="M29.27,8.88h107.5c1.91,0,3.46-1.62,3.46-3.63h0c0-2-1.55-3.63-3.46-3.63H29.27v7.25Z"/>
  <rect class="cls-2" x="153.67" y="1.63" width="96.17" height="7.25" rx="3.62" ry="3.62"/>
</svg>