<?xml version="1.0" encoding="UTF-8"?>
<svg id="Capa_1" data-name="Capa 1" xmlns="http://www.w3.org/2000/svg" viewBox="0 0 250 65.51">
  <defs>
    <style>
      .cls-1 {
        fill: #f05235;
      }

      .cls-2 {
        fill: #0b192c;
      }
    </style>
  </defs>
  <path class="cls-2" d="M2.84,1.79h28.59v7.1H10.65v11.79h11.82c1.96,0,3.55,1.59,3.55,3.55h0c0,1.96-1.59,3.55-3.55,3.55h-11.82v15.66c0,2.17-1.76,3.94-3.94,3.94h0c-2.18,0-3.94-1.77-3.94-3.94l.06-41.64Z"/>
  <path class="cls-2" d="M28.3,29.31h0c4.32,0,7.81,3.83,7.81,8.55v5.41c0,2.27-1.75,4.1-3.91,4.1h0c-2.16,0-3.91-1.84-3.91-4.1v-13.97Z"/>
  <path class="cls-1" d="M32.2,20.45h0c2.16,0,3.91,1.75,3.91,3.91h0c0,2.16-1.75,3.91-3.91,3.91h0c-2.16,0-3.91-1.75-3.91-3.91h0c0-2.16,1.75-3.91,3.91-3.91Z"/>
  <path class="cls-2" d="M37.67,14.82h9.77l6.84,9.12,6.51-9.12h8.79l-10.81,15.11,13.09,17.45h-9.77l-8.4-11.2-7.94,11.2h-8.79l12.24-17.19-11.53-15.37Z"/>
  <path class="cls-2" d="M87.88,14.36c4.82,0,8.53,1.36,11.13,4.07,2.6,2.71,3.91,6.5,3.91,11.36v13.67c0,2.16-1.75,3.91-3.91,3.91h0c-2.16,0-3.91-1.75-3.91-3.91v-14.78c0-2.17-.67-3.91-2.02-5.21-1.35-1.3-3.08-1.95-5.21-1.95s-3.86.65-5.21,1.95c-1.35,1.3-2.02,3.04-2.02,5.21v14.78c0,2.16-1.75,3.91-3.91,3.91h0c-2.16,0-3.91-1.75-3.91-3.91v-13.67c0-4.86,1.3-8.65,3.91-11.36,2.6-2.71,6.32-4.07,11.14-4.07Z"/>
  <path class="cls-2" d="M122.78,47.9c-3,0-5.58-.48-7.75-1.43-2.17-.95-3.96-2.22-5.37-3.81-1.41-1.58-2.45-3.39-3.13-5.4-.67-2.02-1.01-4.09-1.01-6.22s.34-4.2,1.01-6.22c.67-2.02,1.71-3.82,3.13-5.4,1.41-1.58,3.2-2.85,5.37-3.81,2.17-.95,4.75-1.43,7.75-1.43s5.58.48,7.75,1.43c2.17.96,3.96,2.22,5.37,3.81,1.41,1.59,2.45,3.39,3.13,5.4.67,2.02,1.01,4.09,1.01,6.22s-.34,4.2-1.01,6.22c-.67,2.02-1.72,3.82-3.13,5.4-1.41,1.59-3.2,2.86-5.37,3.81-2.17.95-4.75,1.43-7.75,1.43ZM122.78,21.33c-2.08,0-3.83.48-5.24,1.43-1.41.96-2.47,2.15-3.19,3.58-.72,1.43-1.06,3-1.04,4.69.02,1.69.38,3.26,1.07,4.69.69,1.43,1.75,2.63,3.16,3.58,1.41.96,3.16,1.43,5.24,1.43s3.83-.48,5.24-1.43c1.41-.95,2.46-2.15,3.16-3.58.69-1.43,1.04-3,1.04-4.69s-.35-3.26-1.04-4.69c-.69-1.43-1.75-2.63-3.16-3.58-1.41-.95-3.16-1.43-5.24-1.43Z"/>
  <path class="cls-2" d="M146.61,1.79h0c2.16,0,3.91,1.75,3.91,3.91v37.83c0,2.16-1.75,3.91-3.91,3.91h0c-2.16,0-3.91-1.75-3.91-3.91V5.7c0-2.16,1.75-3.91,3.91-3.91Z"/>
  <path class="cls-1" d="M170.43,48.09c-3,0-5.58-.48-7.75-1.43-2.17-.95-3.96-2.22-5.37-3.81-1.41-1.58-2.45-3.39-3.13-5.4-.67-2.02-1.01-4.09-1.01-6.22s.34-4.2,1.01-6.22c.67-2.02,1.71-3.82,3.13-5.4,1.41-1.58,3.2-2.85,5.37-3.81,2.17-.95,4.75-1.43,7.75-1.43s5.58.48,7.75,1.43c2.17.96,3.96,2.22,5.37,3.81,1.41,1.59,2.45,3.39,3.13,5.4.67,2.02,1.01,4.09,1.01,6.22s-.34,4.2-1.01,6.22c-.67,2.02-1.72,3.82-3.13,5.4-1.41,1.59-3.2,2.86-5.37,3.81-2.17.95-4.75,1.43-7.75,1.43ZM170.43,21.52c-2.08,0-3.83.48-5.24,1.43-1.41.96-2.47,2.15-3.19,3.58-.72,1.43-1.06,3-1.04,4.69.02,1.69.38,3.26,1.07,4.69.69,1.43,1.75,2.63,3.16,3.58,1.41.96,3.16,1.43,5.24,1.43s3.83-.48,5.24-1.43c1.41-.95,2.46-2.15,3.16-3.58.69-1.43,1.04-3,1.04-4.69s-.35-3.26-1.04-4.69c-.69-1.43-1.75-2.63-3.16-3.58-1.41-.95-3.16-1.43-5.24-1.43Z"/>
  <path class="cls-1" d="M197.4,47.9c-3,0-5.58-.48-7.75-1.43-2.17-.95-3.96-2.22-5.37-3.81-1.41-1.58-2.45-3.39-3.13-5.4-.67-2.02-1.01-4.09-1.01-6.22s.34-4.2,1.01-6.22c.67-2.02,1.71-3.82,3.13-5.4,1.41-1.58,3.2-2.85,5.37-3.81,2.17-.95,4.75-1.43,7.75-1.43s5.58.48,7.75,1.43c2.17.96,3.96,2.22,5.37,3.81,1.41,1.59,2.45,3.39,3.13,5.4.67,2.02,1.01,4.09,1.01,6.22v15.56c0,2.47-.36,4.76-1.07,6.87-.72,2.1-1.8,3.91-3.26,5.4-1.45,1.5-3.26,2.67-5.4,3.52-2.15.85-4.66,1.27-7.52,1.27h-6.77v-7.16h7.68c1.43,0,2.68-.25,3.74-.75,1.06-.5,1.95-1.17,2.67-2.02.72-.85,1.25-1.81,1.6-2.9.35-1.09.52-2.19.52-3.32v-1.89c-1.26.74-2.66,1.3-4.2,1.69-1.54.39-3.29.59-5.24.59ZM197.4,21.33c-2.13,0-3.9.48-5.31,1.43-1.41.96-2.47,2.15-3.19,3.58-.72,1.43-1.07,3-1.07,4.69s.36,3.26,1.07,4.69c.72,1.43,1.78,2.63,3.19,3.58,1.41.96,3.18,1.43,5.31,1.43s3.9-.48,5.31-1.43c1.41-.95,2.47-2.15,3.19-3.58.72-1.43,1.07-3,1.07-4.69s-.36-3.26-1.07-4.69c-.72-1.43-1.78-2.63-3.19-3.58-1.41-.95-3.18-1.43-5.31-1.43Z"/>
  <path class="cls-2" d="M231.33,47.83c-4.56,0-8.02-1.3-10.39-3.91-2.37-2.6-3.55-6.16-3.55-10.68V14.82h7.81v18.69c0,2.17.67,3.91,2.02,5.21,1.34,1.3,3.08,1.95,5.21,1.95s3.86-.72,5.21-2.15c1.34-1.43,2.02-3.52,2.02-6.25V14.82h7.81v31.78c0,2.47-.36,4.76-1.07,6.87-.72,2.1-1.8,3.91-3.26,5.4-1.45,1.5-3.26,2.67-5.4,3.52-2.15.85-4.66,1.27-7.52,1.27h-3.19c-1.98,0-3.58-1.6-3.58-3.58h0c0-1.98,1.6-3.58,3.58-3.58h4.1c1.43,0,2.68-.25,3.74-.75,1.06-.5,1.94-1.17,2.64-2.02.69-.85,1.22-1.81,1.56-2.9.35-1.09.52-2.19.52-3.32v-2.34c-2.3,1.78-5.06,2.67-8.27,2.67Z"/>
  <path class="cls-1" d="M190.63,56.49H15.21c-1.91,0-3.46,1.6-3.46,3.58h0c0,1.98,1.55,3.58,3.46,3.58h175.42s0-7.16,0-7.16Z"/>
  <rect class="cls-2" x="2.82" y="56.4" width="7.17" height="7.16" rx="3.58" ry="3.58"/>
  <path class="cls-2" d="M31.42,8.89h105.22c1.87,0,3.39-1.59,3.39-3.55h0c0-1.96-1.52-3.55-3.39-3.55H31.42v7.1Z"/>
  <rect class="cls-1" x="153.19" y="1.79" width="94.13" height="7.1" rx="3.55" ry="3.55"/>
</svg>