<?xml version="1.0" encoding="UTF-8"?>
<svg id="Capa_1" data-name="Capa 1" xmlns="http://www.w3.org/2000/svg" viewBox="0 0 160 160">
  <defs>
    <style>
      .cls-1 {
        fill: #fff;
      }

      .cls-2 {
        fill: none;
      }

      .cls-3 {
        fill: #f05235;
      }

      .cls-4 {
        fill: #0b192c;
      }
    </style>
  </defs>
  <rect class="cls-1" x="-.03" y="0" width="160" height="160"/>
  <g>
    <path class="cls-4" d="M66.96,73.86h0c5.99,0,10.84,5.31,10.84,11.87v7.51c0,3.15-2.43,5.69-5.42,5.69h0c-2.99,0-5.42-2.55-5.42-5.69v-19.38Z"/>
    <path class="cls-3" d="M72.38,61.57h0c2.99,0,5.42,2.43,5.42,5.42h0c0,3-2.43,5.42-5.42,5.42h0c-2.99,0-5.42-2.43-5.42-5.42h0c0-3,2.43-5.42,5.42-5.42Z"/>
    <path class="cls-2" d="M98.15,89.08c1.41.48,3,.72,4.76.72,1.36,0,2.61-.15,3.77-.43l-4.49-5.98-4.04,5.7Z"/>
    <path class="cls-2" d="M91.5,69.14c-.13.23-.26.46-.38.7-.99,1.99-1.49,4.16-1.49,6.5,0,2.12.41,4.09,1.21,5.91l5.11-7.17-4.45-5.94Z"/>
    <path class="cls-2" d="M114.7,69.84c-.26-.53-.56-1.03-.9-1.51l-4.57,6.39,5.71,7.61c.83-1.84,1.25-3.84,1.25-5.98,0-2.35-.5-4.52-1.49-6.5Z"/>
    <path class="cls-2" d="M105.39,63.06c-.78-.12-1.61-.18-2.48-.18s-1.66.06-2.42.17l2.51,3.35,2.39-3.34Z"/>
    <path class="cls-4" d="M92.16,54.93c.56-.25,1.14-.46,1.74-.66l-.39-.51h-13.55l4.8,6.4c1.95-2.17,4.41-3.91,7.4-5.23Z"/>
    <path class="cls-4" d="M120.26,59.31l3.98-5.56h-12.2l-.32.45c.67.22,1.32.46,1.94.73,2.59,1.14,4.78,2.6,6.59,4.38Z"/>
    <path class="cls-4" d="M113.81,68.33c-.92-1.33-2.09-2.49-3.53-3.46-1.38-.93-3.01-1.53-4.89-1.81l-2.39,3.34-2.51-3.35c-1.9.27-3.55.87-4.94,1.81-1.72,1.17-3.07,2.59-4.05,4.27l4.45,5.94-5.11,7.17c.09.2.18.4.28.59.99,1.99,2.47,3.64,4.43,4.97.79.53,1.65.95,2.6,1.27l4.04-5.7,4.49,5.98c1.34-.33,2.54-.84,3.6-1.56,1.96-1.32,3.43-2.98,4.43-4.97.09-.17.16-.35.24-.52l-5.71-7.61,4.57-6.39Z"/>
    <path class="cls-4" d="M84.71,92.47c-.21-.24-.42-.48-.62-.73l-5.12,7.19h12.2l.87-1.23c-2.96-1.32-5.4-3.06-7.33-5.23Z"/>
    <path class="cls-4" d="M113.13,97.97l.71.95h2.17v-2.35c-.91.53-1.87,1-2.88,1.4Z"/>
    <path class="cls-3" d="M102.91,62.88c.87,0,1.69.06,2.48.18l6.33-8.86c-2.58-.83-5.51-1.26-8.81-1.26s-6.38.45-9.01,1.33l6.59,8.78c.77-.11,1.57-.17,2.42-.17Z"/>
    <path class="cls-3" d="M102.91,89.8c-1.77,0-3.35-.24-4.76-.72l-6.11,8.61s.08.04.12.06c3.01,1.32,6.59,1.99,10.75,1.99,2.71,0,5.13-.27,7.27-.81,1.03-.26,2.01-.58,2.95-.95l-6.45-8.6c-1.15.28-2.4.43-3.77.43Z"/>
    <path class="cls-3" d="M121.33,99.55c-2.5,0-4.62,1.76-5.16,4.2-.05.25-.11.48-.18.68-.48,1.51-1.22,2.85-2.21,4.02-.99,1.17-2.23,2.11-3.7,2.8-1.48.69-3.21,1.04-5.19,1.04h-5.69c-2.74,0-4.97,2.22-4.97,4.97h0c0,2.74,2.22,4.97,4.97,4.97h4.43c3.98,0,7.45-.59,10.44-1.76,2.98-1.17,5.48-2.8,7.5-4.88,2.02-2.08,3.52-4.58,4.52-7.5.23-.68.43-1.37.61-2.08.82-3.29-1.74-6.46-5.13-6.46h-.21Z"/>
    <path class="cls-3" d="M114.7,69.84c.99,1.99,1.49,4.16,1.49,6.5,0,2.15-.42,4.14-1.25,5.98l11.9,15.87c0-.09,0-.18,0-.27v-21.59c0-2.95-.47-5.83-1.4-8.63-.93-2.8-2.38-5.3-4.34-7.5-.28-.31-.56-.61-.86-.9l-6.45,9.01c.33.48.63.98.9,1.51Z"/>
    <path class="cls-3" d="M89.63,76.34c0-2.35.5-4.52,1.49-6.5.12-.24.25-.47.38-.7l-6.74-8.98s-.04.04-.06.06c-1.96,2.2-3.4,4.7-4.34,7.5-.93,2.8-1.4,5.68-1.4,8.63s.47,5.83,1.4,8.63c.83,2.5,2.07,4.75,3.72,6.77l6.76-9.49c-.81-1.82-1.21-3.79-1.21-5.91Z"/>
    <rect class="cls-4" x="83.06" y="112.2" width="10.03" height="10.03" rx="5.01" ry="5.01"/>
    <path class="cls-4" d="M119.32,35.78H33.23l-.08,57.77c0,3.02,2.44,5.47,5.46,5.47h0c3.02,0,5.46-2.45,5.46-5.46v-21.73h16.4c2.72,0,4.92-2.2,4.92-4.92s-2.2-4.92-4.92-4.92h-16.4v-16.35h28.82v-.02h46.43c2.72,0,4.92-2.2,4.92-4.92s-2.2-4.92-4.92-4.92Z"/>
  </g>
</svg>